<?xml version="1.0" standalone="no"?>
<!DOCTYPE svg PUBLIC "-//W3C//DTD SVG 20010904//EN"
 "http://www.w3.org/TR/2001/REC-SVG-20010904/DTD/svg10.dtd">
<svg version="1.0" xmlns="http://www.w3.org/2000/svg"
 width="300.000000pt" height="300.000000pt" viewBox="0 0 300.000000 300.000000"
 preserveAspectRatio="xMidYMid meet">
<metadata>
Created by potrace 1.10, written by Peter Selinger 2001-2011
</metadata>
<g transform="translate(0.000000,300.000000) scale(0.100000,-0.100000)"
fill="#000000" stroke="none">
<path d="M1440 1620 l0 -790 50 0 50 0 0 790 0 790 -50 0 -50 0 0 -790z m60
225 c0 -294 -4 -505 -10 -505 -5 0 -9 212 -10 505 0 344 3 505 10 505 7 0 10
-161 10 -505z m0 -740 c0 -134 -4 -225 -9 -225 -6 0 -10 91 -10 225 0 140 3
225 9 225 6 0 10 -85 10 -225z"/>
<path d="M1835 1545 l0 -715 48 0 47 0 0 629 c0 569 -5 691 -24 618 -3 -12 -6
-287 -6 -612 0 -334 -4 -593 -9 -598 -29 -29 -31 14 -31 674 0 548 3 669 14
669 7 0 35 -12 62 -26 27 -14 115 -60 196 -100 81 -41 150 -79 153 -84 6 -10
8 -1130 2 -1137 -2 -2 -10 -1 -18 2 -12 4 -14 93 -16 537 -1 413 -5 537 -15
556 -18 34 -291 171 -303 152 -3 -5 62 -43 145 -85 l150 -76 -2 -559 -3 -560
48 0 47 0 0 595 0 595 -240 120 c-132 66 -241 120 -242 120 -2 0 -3 -322 -3
-715z"/>
<path d="M1640 1523 l0 -693 48 0 47 0 -2 692 -3 692 -45 1 -45 1 0 -693z m70
-4 c0 -574 -2 -650 -16 -656 -8 -3 -17 -3 -19 -1 -7 7 -7 1307 0 1319 5 7 11
6 21 -2 11 -9 13 -120 14 -660z"/>
<path d="M905 1971 l-240 -148 -3 -496 -2 -497 47 0 48 0 -3 462 -3 463 108
64 c59 36 127 78 151 93 l42 29 0 -556 0 -555 50 0 50 0 0 645 c0 355 -1 645
-2 644 -2 -1 -111 -67 -243 -148z m205 -513 c0 -377 -3 -579 -10 -572 -6 6
-11 207 -12 521 -3 486 -4 512 -22 532 -11 12 -25 21 -31 21 -7 0 -61 -29
-120 -65 -60 -36 -111 -65 -115 -65 -3 0 -23 -15 -43 -34 l-37 -34 -1 -203
c-3 -580 -5 -668 -11 -675 -5 -4 -8 24 -8 62 0 38 -1 243 -2 456 -3 333 -1
389 12 402 25 25 376 236 393 236 4 0 7 -262 7 -582z"/>
<path d="M1245 1325 l0 -495 48 0 47 0 0 495 0 495 -47 0 -48 0 0 -495z m59 3
c-2 -480 -1 -448 -12 -448 -6 0 -9 853 -4 883 1 5 6 6 10 3 5 -3 8 -200 6
-438z"/>
</g>
</svg>
